PathFileType	4	(X/Y/Z)	C:/Users/beibeiliu/ov580/test_trc/User1\sequence.37_training_dense_left.trc
DataRate	CameraRate	NumFrames	NumMarkers	Units	OrigDataRate	OrigDataStartFrame	OrigNumFrames
120	120	11	19	mm	120	61	243
Frame#	Time	ThumbCMC			ThumbMCP			ThumbIP			ThumbTip			IndexMCP			IndexPIP			IndexTip			MiddleMCP			MiddlePIP			MiddleTip			RingMCP			RingPIP			RingTip			PinkyMCP			PinkyPIP			PinkyTip			BackHand1			BackHand2			BackHand3	
		X0	Y0	Z0	X1	Y1	Z1	X2	Y2	Z2	X3	Y3	Z3	X4	Y4	Z4	X5	Y5	Z5	X6	Y6	Z6	X7	Y7	Z7	X8	Y8	Z8	X9	Y9	Z9	X10	Y10	Z10	X11	Y11	Z11	X12	Y12	Z12	X13	Y13	Z13	X14	Y14	Z14	X15	Y15	Z15	X16	Y16	Z16	X17	Y17	Z17	X18	Y18	Z18	
60	0.5	-116.243	17.7605	47.2518	-97.1289	28.197	19.8248	-81.5166	16.7131	-8.4532	-70.247	-5.11797	-16.3359	-98.5582	-8.83409	-35.2622	-65.6759	-18.2825	-38.818	-45.9352	-21.6647	-6.61804	-95.8486	-32.5488	-37.6918	-63.6479	-38.228	-33.7693	-42.2125	-33.4182	1.96229	-95.5911	-56.4415	-26.9605	-61.4918	-57.5732	-19.6556	-48.3928	-48.9066	6.3739	-100.974	-72.7377	-9.25231	-71.2576	-70.5648	-7.1187	-55.6919	-51.9338	12.9871	-141.712	-46.6341	15.4169	-150.65	-41.0665	53.5448	-142.089	-13.0565	29.7672	
61	0.508333	-116.06	18.5325	46.107	-96.4892	30.9419	19.3163	-81.8417	20.1672	-5.52398	-67.6088	-5.26522	-18.4895	-99.2107	-10.5513	-35.8633	-65.314	-19.0927	-39.3924	-45.0877	-18.5804	-11.2873	-94.6005	-33.5406	-37.6617	-60.8492	-38.7933	-31.6554	-43.2963	-34.9474	1.44341	-97.2264	-58.6016	-25.5867	-62.3323	-56.1242	-21.357	-48.5189	-51.7704	8.84762	-99.6102	-76.2589	-10.0045	-70.7597	-69.1156	-7.5303	-59.014	-49.9218	12.5167	-141.627	-47.8676	15.3752	-149.802	-41.5474	50.2203	-143.687	-6.49476	30.8438	
62	0.516667	-116.195	18.2021	48.2548	-98.175	30.6762	17.9385	-84.6626	20.8347	-2.55846	-70.6588	-4.4859	-16.6243	-96.533	-9.13028	-37.5841	-66.4369	-17.0691	-40.938	-46.0196	-20.3763	-9.28961	-96.9118	-32.6443	-36.9573	-60.0968	-35.4545	-32.6685	-43.8505	-37.6202	0.371993	-95.7097	-56.9994	-26.6405	-63.485	-54.7255	-23.4262	-48.3435	-49.7411	8.60317	-101.619	-73.8747	-10.0127	-71.752	-69.6036	-8.27332	-56.1343	-50.415	13.7447	-144.092	-43.6859	19.9102	-149.754	-38.4596	51.4598	-142.322	-8.00385	30.6138	
63	0.525	-116.66	16.7024	47.6858	-99.8567	31.9229	19.9348	-86.5899	20.905	-3.49752	-71.9271	-3.27324	-15.1271	-97.2961	-8.39908	-36.4743	-64.3337	-17.1658	-39.1663	-45.337	-17.6865	-9.96543	-95.7431	-34.2571	-37.5696	-62.8776	-36.1137	-34.5628	-44.0295	-32.8064	-0.282047	-98.8306	-55.123	-25.8714	-62.6114	-54.1382	-22.235	-48.4483	-50.7317	6.26385	-104.061	-71.2291	-9.94855	-72.6164	-70.5366	-9.09152	-58.0543	-47.8543	11.2285	-142.681	-42.7985	18.6242	-152.755	-43.3696	53.4902	-143.55	-7.20667	28.4834	
64	0.533333	-117.977	14.1219	45.9937	-99.1279	32.5823	21.8628	-84.9861	20.15	-8.38267	-71.6983	-3.05361	-14.3178	-95.7713	-10.2581	-37.8272	-62.8031	-17.3152	-38.6001	-45.8373	-16.1732	-12.9235	-96.3116	-32.1724	-38.4037	-60.3649	-37.2809	-32.7436	-43.8535	-34.6033	1.25497	-95.8466	-58.0061	-27.241	-62.7938	-56.1933	-22.6247	-47.9348	-47.9123	6.69925	-101.331	-70.4956	-10.0912	-71.4619	-68.6572	-9.177	-54.9927	-53.02	12.0232	-143.073	-45.6213	18.2955	-150.405	-42.0242	52.247	-141.467	-8.27386	29.7247	
65	0.541667	-116.858	15.5084	45.8682	-98.5931	29.7047	16.628	-83.8743	20.6072	-3.10952	-70.1607	-3.46139	-16.4139	-98.9423	-7.29291	-35.6279	-63.912	-17.9336	-37.7498	-44.5189	-17.947	-8.24406	-95.6329	-31.8083	-38.1129	-60.9874	-39.3669	-32.2467	-44.4796	-38.4633	-1.02429	-94.6807	-52.9277	-27.0857	-61.2452	-54.4426	-20.8112	-47.8314	-50.0115	7.50685	-98.4655	-70.7139	-10.9229	-71.0601	-70.9674	-7.32749	-56.9473	-47.4932	11.0617	-142.352	-44.8552	20.2776	-152.865	-43.5932	49.382	-143.914	-10.2139	30.3702	
66	0.55	-115.246	17.7117	45.7156	-96.0465	32.5292	19.0326	-82.1312	19.7029	-6.24282	-66.7639	-3.95073	-19.4697	-97.9772	-5.74061	-35.0621	-64.1172	-15.9211	-38.7993	-44.6953	-16.8554	-9.08397	-95.0246	-34.0687	-37.9386	-62.8161	-35.4009	-35.9544	-43.8638	-35.6968	1.63303	-94.4692	-54.5636	-26.5976	-61.3918	-57.9204	-21.0862	-47.7563	-49.3993	4.79756	-102.654	-72.9174	-9.03383	-72.9294	-68.3566	-8.52346	-56.2955	-52.7747	13.5366	-143.375	-43.1088	19.7935	-150.494	-42.126	50.0589	-143.715	-8.03711	30.6937	
67	0.558333	-114.147	18.7825	45.2594	-92.8327	30.6408	20.111	-78.8212	21.1209	-7.89331	-67.6676	-6.46271	-18.1909	-96.456	-8.55481	-34.8408	-64.2335	-15.9482	-38.2158	-44.195	-18.0281	-10.04	-95.4899	-34.1263	-35.9941	-60.3044	-38.2673	-32.445	-44.0978	-38.4888	0.583849	-95.1628	-54.5911	-26.766	-60.1191	-55.821	-19.1646	-48.6217	-48.3925	8.38801	-98.1856	-73.6329	-10.6616	-69.8606	-68.9875	-6.50388	-59.7286	-48.2358	16.2464	-143.859	-43.799	18.5516	-149.282	-40.0891	48.977	-141.744	-7.67674	29.8459	
68	0.566667	-111.934	17.7432	46.5118	-89.5395	29.8935	20.4972	-78.2066	20.2509	-3.38103	-62.9735	-3.18498	-20.4229	-92.8785	-7.62828	-36.2076	-59.3832	-17.8006	-36.2999	-45.7074	-22.6222	-7.24723	-94.8832	-34.5494	-37.1616	-61.8662	-40.0582	-32.8264	-43.8609	-36.6355	0.271302	-96.3652	-53.1235	-26.8295	-61.3911	-56.3168	-20.1706	-49.4252	-52.9893	8.11912	-99.6582	-76.1799	-9.99385	-70.3956	-67.8595	-7.60876	-61.1436	-47.2557	13.3635	-141.601	-43.7843	15.2711	-151.817	-42.679	49.6528	-140.168	-9.90592	28.9203	
69	0.575	-111.04	13.1513	47.3391	-88.4632	25.6276	19.6065	-75.391	21.0894	-5.6193	-59.8558	1.30097	-22.2174	-90.7901	-4.15512	-36.0183	-58.9664	-17.3104	-34.4856	-45.6267	-22.466	-5.45132	-91.1876	-35.1815	-37.3536	-60.4107	-40.5199	-32.2602	-43.6424	-37.3085	4.37395	-94.4162	-56.8251	-26.1861	-61.945	-59.1083	-20.6686	-49.925	-50.0044	8.80414	-98.451	-75.7917	-11.3301	-70.4425	-67.3393	-7.84189	-59.5855	-50.1202	14.1094	-143.263	-45.3961	18.6313	-150.785	-43.3221	53.5166	-139.979	-9.73585	30.1647	
70	0.583333	-109.358	15.7933	46.3846	-87.5131	21.6258	22.1257	-72.7793	21.0112	-4.76329	-58.6148	4.9298	-24.9689	-89.9439	-4.0632	-36.0221	-60.7081	-13.3852	-37.3584	-44.0633	-22.8446	-2.3498	-92.2489	-30.3923	-36.2357	-59.4758	-38.9415	-31.492	-42.6904	-34.5991	2.14551	-94.4544	-56.3108	-26.9068	-58.2656	-54.5627	-17.5197	-50.3182	-49.2102	15.0311	-96.4007	-75.7447	-11.7826	-69.3967	-71.4141	-6.47817	-62.8419	-46.0423	17.7003	-141.85	-46.5208	15.4069	-148.66	-38.7332	51.3002	-139.49	-9.0658	30.4103	
